<?xml version="1.0" encoding="UTF-8"?>
<svg width="940" height="300" version="1.1" viewBox="0 0 940 300" xml:space="preserve" xmlns="http://www.w3.org/2000/svg" xmlns:cc="http://creativecommons.org/ns#" xmlns:dc="http://purl.org/dc/elements/1.1/" xmlns:rdf="http://www.w3.org/1999/02/22-rdf-syntax-ns#"><metadata><rdf:RDF><cc:Work rdf:about=""><dc:format>image/svg+xml</dc:format><dc:type rdf:resource="http://purl.org/dc/dcmitype/StillImage"/><dc:title/></cc:Work></rdf:RDF></metadata>
<style type="text/css">
	.st0{fill-rule:evenodd;clip-rule:evenodd;fill:#13BEF9;}
	.st1{fill:#13BEF9;}
</style>

<g display="none"><polygon class="st0" points="84.3 76.6 80.3 76.6 80.3 97.3 84.3 97.3" display="inline"/><polygon class="st0" points="101.5 76.6 97.5 76.6 97.5 97.3 101.5 97.3" display="inline"/><polygon class="st0" points="125 37.1 120.9 30 52.5 69.5 56.6 76.6" display="inline"/><polygon class="st0" points="124.6 37.1 128.7 30 197.1 69.5 193 76.6" display="inline"/><polygon class="st0" points="209.2 76.7 209.2 68.5 21.8 68.5 21.8 76.7" display="inline"/><path class="st0" d="m135 192.5v-121.5h8.2v127.4c-2.2-2.5-5-4.3-8.2-5.9z" display="inline"/><path class="st0" d="m121 190.4v-171.4h8.2v172.4c-2.3-1.1-7.9-1-8.2-1z" display="inline"/><path class="st0" d="m43.3 207.5c-10-7.4-16.6-19.2-16.6-32.6 0-7.1 1.9-14.1 5.4-20.2h70c3.6 6.1 5.4 13.1 5.4 20.2 0 6.2-0.8 12-3.3 17.2-5.3-5.1-13.1-7.3-21-7.3-14 0-26 8.7-29.1 21.7-1.1-0.1-1.8-0.2-2.9-0.2-2.7 0.1-5.3 0.5-7.9 1.2z" display="inline"/><polygon class="st0" points="77.7 106.5 56.5 106.5 56.5 127.8 77.7 127.8" display="inline"/><polygon class="st0" points="53.8 106.5 32.6 106.5 32.6 127.8 53.8 127.8" display="inline"/><polygon class="st0" points="53.8 130.2 32.6 130.2 32.6 151.5 53.8 151.5" display="inline"/><polygon class="st0" points="77.7 130.2 56.5 130.2 56.5 151.5 77.7 151.5" display="inline"/><polygon class="st0" points="101.5 130.2 80.3 130.2 80.3 151.5 101.5 151.5" display="inline"/><polygon class="st0" points="101.5 95.1 80.3 95.1 80.3 116.4 101.5 116.4" display="inline"/><path class="st0" d="m57.6 210.7c2.9-12.3 14-21.5 27.2-21.5 8.5 0 16.1 3.8 21.3 9.8 4.5-3.1 9.9-4.9 15.8-4.9 15.4 0 27.9 12.5 27.9 27.9 0 3.2-0.5 6.2-1.5 9.1 3.4 4.6 5.5 10.4 5.5 16.6 0 15.4-12.5 27.9-27.9 27.9-6.8 0-13-2.4-17.8-6.4-5.1 7.1-13.4 11.8-22.8 11.8-10.8 0-20.2-6.2-24.9-15.2-1.9 0.4-3.8 0.6-5.8 0.6-15.4 0-28-12.5-28-27.9s12.5-27.9 28-27.9c1-0.1 2-0.1 3 0.1z" display="inline"/></g><g><g transform="matrix(5.88 0 0 5.88 -85.904 12.76)"><text x="143.88176" y="36.103176" fill="#a54ba0" font-family="Arial" font-size="19.919px" font-weight="900" stroke-width=".17372" style="line-height:2.35" xml:space="preserve"><tspan x="143.88176" y="36.103176" stroke-width=".17372">CC</tspan></text><g transform="matrix(.17371 0 0 .17371 12.641 -3.0506)">
	
	
	
	
	
	
	
	
	<path class="st1" d="m219.8 115.5c-10.6 0-19.9 4.9-26.3 12.5v-11.4h-10.6v101.3h10.6v-42.7c6.3 7.8 15.7 12.8 26.3 12.8 19.8 0 36.1-16.9 36.1-36.4 0-19.8-16.3-36.1-36.1-36.1zm0.3 62c-13.8 0-26-12.2-26-26 0-14.1 12.2-25.6 26-25.6 14.1 0 24.7 11.5 24.7 25.6 0 13.8-10.6 26-24.7 26z"/>
	<path class="st1" d="m302.3 187.9c19.8 0 36.1-16.9 36.1-36.4 0-19.8-16.3-36.1-36.1-36.1s-36.1 16.3-36.1 36.1c0 19.5 16.3 36.4 36.1 36.4zm0-62c14.1 0 25 11.5 25 25.6 0 13.8-10.9 26-25 26s-25-12.2-25-26c0-14 10.9-25.6 25-25.6z"/>
	<path class="st1" d="m365.6 116.6h-10.6v69.6h10.6v-38.5c0-14.2 11.2-21.8 23.6-21.8v-10.4c-9.6 0-17.9 4.1-23.6 10.6z"/>
	<polygon class="st1" points="397.1 126.2 407.5 126.2 407.5 186.2 418.1 186.2 418.1 126.2 433.8 126.2 433.8 116.6 418.1 116.6 418.1 89.2 407.5 89.2 407.5 116.6 397.1 116.6"/>
	<path class="st1" d="m478.6 187.9c10.6 0 19.9-5.1 26.3-12.8v11.4h10.6v-69.9h-10.6v11.4c-6.3-7.6-15.7-12.5-26.3-12.5-19.8 0-36.1 16.3-36.1 36.1 0 19.4 16.3 36.3 36.1 36.3zm-0.4-10.4c-14.1 0-24.7-12.2-24.7-26 0-14.1 10.6-25.6 24.7-25.6 13.8 0 26 11.5 26 25.6 0 13.8-12.2 26-26 26z"/>
	<path class="st1" d="m543.6 102.5c4 0 7.4-3.3 7.4-7.6 0-3.8-3.5-7.3-7.4-7.3-4.3 0-7.6 3.5-7.6 7.3 0 4.3 3.3 7.6 7.6 7.6zm-5.4 83.7h11.1v-69.6h-11.1z"/>
	<path class="st1" d="m571.6 186.2h10.6v-37c0-15.7 8.7-23.6 22.8-23.3 11.6 0 17.9 6.8 17.9 20.6v39.7h10.6v-39.7c0-22.2-8.5-31-28.5-31-9.5 0-17.2 3.5-22.8 9.5v-8.4h-10.6z"/>
	<path class="st1" d="m720.7 151.5c0-19.8-16.3-36.1-36.1-36.1s-36.1 16.3-36.1 36.1c0 19.5 16.3 36.4 36.1 36.4 14.1 0 26.6-8.1 32.4-20.1h-13.1c-4.4 5.7-11.2 9.7-19.3 9.7-12.3 0-22.3-9.5-24.5-21h60.6zm-36.1-25.6c12.2 0 22.2 8.9 24.5 20.4h-49.1c2.4-11.5 12.3-20.4 24.6-20.4z"/>
	<path class="st1" d="m747.9 116.6h-10.6v69.6h10.6v-38.5c0-14.2 11.2-21.8 23.6-21.8v-10.4c-9.7 0-17.9 4.1-23.6 10.6z"/>
	
	
	
	
	
	
	
	
	
	
</g><g transform="matrix(.10248 0 0 .10248 -10.879 8.992)"><path transform="matrix(9.7578 0 0 9.7578 106.15 -87.743)" d="m25.896 11.949a38.308 42.519 0 0 0-10.994 1.7891c0.20636 11.19 2.2534 17.192 10.996 21.959 3.0604-1.6686 5.2863-3.4958 6.9141-5.6367v-17.412a38.308 42.519 0 0 0-1.8438-0.32422v5.541h-5.0723z" fill="#a54ba0"/><path transform="matrix(9.7578 0 0 9.7578 106.15 -87.743)" d="m25.361 12.363c-0.42933 0.0078-0.85604 0.02101-1.2891 0.04492-1.4768 0.07846-2.9667 0.25795-4.4277 0.5293-1.0282 0.19136-2.0621 0.43103-3.0742 0.7168-0.41136 0.11655-0.83394 0.24345-1.2461 0.37695-0.01235 0.0874 0.0018 0.19425 0 0.28906 0.04885 1.9109 0.15435 3.8262 0.39844 5.7246 0.07311 0.56905 0.15892 1.1388 0.26172 1.707 0.05448 0.29543 0.1159 0.60627 0.18164 0.90625 0.04613 0.21662 0.09772 0.43588 0.15039 0.65625 0.04711 0.18973 0.10018 0.3995 0.1543 0.5957 0.1598 0.58727 0.3501 1.1931 0.56836 1.7754 0.08748 0.23349 0.17654 0.45881 0.26953 0.67969 0.55666 1.3261 1.2964 2.5963 2.1992 3.7266 0.47134 0.5907 0.98466 1.1482 1.5312 1.6699 0.0913 0.08544 0.20084 0.18874 0.30078 0.2793 1.142 1.0386 2.4108 1.9309 3.7363 2.7188 0.11126 0.06426 0.24501 0.14259 0.35742 0.20703 0.15856 0.09098 0.3058 0.17387 0.46484 0.26172 1.233-0.68195 2.4332-1.4499 3.5332-2.3203 1.0314-0.8156 1.9863-1.732 2.8105-2.7578 0.07702-0.09783 0.17125-0.21673 0.25195-0.32422 0.08804-0.1157 0.17201-0.22808 0.25195-0.33984 0.02353-0.03229 0.0445-0.06449 0.06641-0.0957v-16.307c-0.26354-0.05443-0.52437-0.12159-0.78906-0.16992-0.18782-0.03229-0.39534-0.07266-0.5918-0.10352-0.15568-0.02578-0.30862-0.0472-0.46289-0.07031v5.125h-5.0723v-5.5c-0.17846-4.5e-5 -0.356-0.0047-0.53516-2e-3z" fill="#fff" opacity=".1"/><path d="m358.86 32.869c-1.744-4.89e-4 -3.4894 2e-3 -5.2402 0.0293-4.1893 0.07602-8.3547 0.20805-12.58 0.44141-14.41 0.76563-28.942 2.5046-43.199 5.1523-10.033 1.8673-20.114 4.2174-29.99 7.0059-4.014 1.1373-8.1482 2.3789-12.17 3.6816-0.12048 0.85281 0.0239 1.8932 6e-3 2.8184 0.47664 18.646 1.4971 37.335 3.8789 55.859 0.7134 5.5527 1.5594 11.098 2.5625 16.643 0.53159 2.8827 1.1221 5.9244 1.7637 8.8516 0.45015 2.1138 0.95087 4.2539 1.4648 6.4043 0.45965 1.8514 0.97777 3.896 1.5059 5.8106 1.5593 5.7304 3.425 11.636 5.5547 17.318 0.8536 2.2783 1.7312 4.4853 2.6387 6.6406 5.4318 12.94 12.642 25.337 21.451 36.365 4.5992 5.764 9.6059 11.2 14.939 16.291 0.89085 0.83376 1.9623 1.8429 2.9375 2.7266 11.143 10.135 23.526 18.834 36.461 26.521 1.0857 0.62705 2.3817 1.4005 3.4785 2.0293 1.5464 0.8873 2.986 1.7019 4.5371 2.5586z" fill="#fff" opacity=".1"/></g><polygon class="st0" transform="matrix(.17371 0 0 .17371 12.641 -3.0506)" points="80.3 76.6 80.3 97.3 84.3 97.3 84.3 76.6"/><polygon class="st0" transform="matrix(.17371 0 0 .17371 12.641 -3.0506)" points="97.5 76.6 97.5 97.3 101.5 97.3 101.5 76.6"/><polygon class="st0" transform="matrix(.17371 0 0 .17371 12.641 -3.0506)" points="120.9 30 52.5 69.5 56.6 76.6 125 37.1"/><polygon class="st0" transform="matrix(.17371 0 0 .17371 12.641 -3.0506)" points="128.7 30 197.1 69.5 193 76.6 124.6 37.1"/><polygon class="st0" transform="matrix(.17371 0 0 .17371 12.641 -3.0506)" points="209.2 68.5 21.8 68.5 21.8 76.7 209.2 76.7"/><path class="st0" d="m36.093 30.39v-21.106h1.4245v22.131c-0.38217-0.43429-0.86857-0.74697-1.4245-1.0249z" stroke-width=".17372"/><path class="st0" d="m33.661 30.025v-29.775h1.4245v29.948c-0.39954-0.19109-1.3723-0.17371-1.4245-0.17371z" stroke-width=".17372"/><polygon class="st0" transform="matrix(.17371 0 0 .17371 12.641 -3.0506)" points="80.3 95.1 80.3 116.4 101.5 116.4 101.5 95.1"/><path d="m33.984 30.672c-1.869 2.553-4.4762 4.707-8.0866 6.6755-2.0583-1.1223-3.7899-2.305-5.2454-3.5873-1.9689 0.62166-3.3905 2.4559-3.3905 4.6204 0 2.6752 2.1888 4.8467 4.864 4.8467 0.34743 0 0.67762-0.03467 1.0077-0.10416 0.81646 1.5634 2.4494 2.6403 4.3256 2.6403 1.6329 0 3.0745-0.8166 3.9605-2.05 0.83383 0.69486 1.911 1.1118 3.0923 1.1118 2.6752 0 4.8467-2.1715 4.8467-4.8467 0-1.077-0.3648-2.0845-0.95543-2.8836 0.17372-0.50377 0.26057-1.0249 0.26057-1.5807 0-2.6191-2.0817-4.7539-4.6794-4.8423z" fill="#13bef9" stroke-width=".17372"/></g></g><g display="none"><path d="m653.49 27.576a373.8 414.9 0 0 0-107.3 17.463c2.0136 109.19 21.992 167.76 107.3 214.27 85.31-46.514 105.29-105.08 107.3-214.27a373.8 414.9 0 0 0-107.3-17.463z" display="inline" fill="#a54ba0"/><path d="m358.86 28.856a373.8 414.9 0 0 0-107.3 17.463c2.0136 109.19 21.992 167.76 107.3 214.27 85.31-46.514 105.29-105.08 107.3-214.27a373.8 414.9 0 0 0-107.3-17.463z" display="inline" fill="#a54ba0"/><path d="m353.62 32.898c-4.1893 0.07602-8.3545 0.20711-12.58 0.44047-14.41 0.76563-28.942 2.5048-43.199 5.1525-10.033 1.8673-20.115 4.2181-29.991 7.0066-4.014 1.1373-8.1472 2.3793-12.169 3.682-0.12048 0.85281 0.022 1.8932 4e-3 2.8184 0.47664 18.646 1.4974 37.334 3.8792 55.859 0.7134 5.5527 1.5603 11.098 2.5634 16.643 0.53159 2.8827 1.1228 5.9252 1.7643 8.8524 0.45015 2.1138 0.95025 4.2531 1.4642 6.4035 0.45965 1.8514 0.97724 3.8956 1.5053 5.8101 1.5593 5.7304 3.4256 11.637 5.5554 17.319 0.8536 2.2783 1.7299 4.4854 2.6373 6.6407 5.4318 12.94 12.643 25.336 21.452 36.365 4.5992 5.764 9.6059 11.2 14.939 16.291 0.89085 0.83376 1.9624 1.8431 2.9376 2.7267 11.143 10.135 23.526 18.834 36.461 26.521 1.0857 0.62705 2.3813 1.401 3.4782 2.0298 1.5472 0.88775 2.9874 1.7029 4.5394 2.5601 12.031-6.6543 23.752-14.151 34.486-22.645 10.065-7.9585 19.373-16.912 27.416-26.922 0.75151-0.95457 1.6694-2.0986 2.4568-3.1475 0.85908-1.129 1.6872-2.2428 2.4673-3.3334 0.74643-1.0243 1.3707-1.9484 2.1135-3.0209 5.4465-7.9646 10.086-16.471 13.956-25.307 3.9812-9.1116 7.2168-18.754 9.7344-28.449 1.2589-4.8423 2.3623-9.7541 3.3184-14.557 3.9625-20.238 5.76-40.832 6.696-61.361 0.27371-6.043 0.46478-12.038 0.59112-18.074-14.225-4.6019-28.755-8.2557-43.463-10.941-1.8327-0.31507-3.8653-0.6925-5.7823-0.99354-2.7944-0.46269-5.5627-0.87903-8.3154-1.2579-8.381-1.1702-16.913-2.0045-25.293-2.5298-8.5473-0.51294-17.037-0.71578-25.625-0.58203z" display="inline" fill="#fff" opacity=".1"/><path d="m358.86 32.869c-1.744-4.89e-4 -3.4894 2e-3 -5.2402 0.0293-4.1893 0.07602-8.3547 0.20805-12.58 0.44141-14.41 0.76563-28.942 2.5046-43.199 5.1523-10.033 1.8673-20.114 4.2174-29.99 7.0059-4.014 1.1373-8.1482 2.3789-12.17 3.6816-0.12048 0.85281 0.0239 1.8932 6e-3 2.8184 0.47664 18.646 1.4971 37.335 3.8789 55.859 0.7134 5.5527 1.5594 11.098 2.5625 16.643 0.53159 2.8827 1.1221 5.9244 1.7637 8.8516 0.45015 2.1138 0.95087 4.2539 1.4648 6.4043 0.45965 1.8514 0.97777 3.896 1.5059 5.8106 1.5593 5.7304 3.425 11.636 5.5547 17.318 0.8536 2.2783 1.7312 4.4853 2.6387 6.6406 5.4318 12.94 12.642 25.337 21.451 36.365 4.5992 5.764 9.6059 11.2 14.939 16.291 0.89085 0.83376 1.9623 1.8429 2.9375 2.7266 11.143 10.135 23.526 18.834 36.461 26.521 1.0857 0.62705 2.3817 1.4005 3.4785 2.0293 1.5464 0.8873 2.986 1.7019 4.5371 2.5586z" fill="#fff" opacity=".1"/></g></svg>
